HIERARCHY
ROOT Hips
{
	OFFSET 0.000000 0.000000 0.000000
	CHANNELS 6 Xposition Yposition Zposition Zrotation Yrotation Xrotation 
	JOINT LowerBack
	{
		OFFSET 0.000000 0.000000 0.000000
		CHANNELS 3 Zrotation Yrotation Xrotation
		JOINT Spine
		{
			OFFSET 0.028270 2.035590 -0.193380
			CHANNELS 3 Zrotation Yrotation Xrotation
			JOINT Spine1
			{
				OFFSET 0.056720 2.048850 -0.042750
				CHANNELS 3 Zrotation Yrotation Xrotation
				JOINT Neck
				{
					OFFSET 0.000000 0.000000 0.000000
					CHANNELS 3 Zrotation Yrotation Xrotation
					JOINT Neck1
					{
						OFFSET -0.054170 1.746240 0.172020
						CHANNELS 3 Zrotation Yrotation Xrotation
						JOINT Head
						{
							OFFSET 0.104070 1.761360 -0.123970
							CHANNELS 3 Zrotation Yrotation Xrotation
							End Site
							{
								OFFSET 0.000000 0.000000 0.000000
							}
						}
					}
				}
				JOINT LeftShoulder
				{
					OFFSET 0.000000 0.000000 0.000000
					CHANNELS 3 Zrotation Yrotation Xrotation
					JOINT LeftArm
					{
						OFFSET 3.362410 1.200890 -0.311210
						CHANNELS 3 Zrotation Yrotation Xrotation
						JOINT LeftForeArm
						{
							OFFSET 4.983000 -0.000000 -0.000000
							CHANNELS 3 Zrotation Yrotation Xrotation
							JOINT LeftHand
							{
								OFFSET 3.483560 -0.000000 -0.000000
								CHANNELS 3 Zrotation Yrotation Xrotation
								JOINT LeftFingerBase
								{
									OFFSET 0.000000 0.000000 0.000000
									CHANNELS 3 Zrotation Yrotation Xrotation
									JOINT LeftHandIndex1
									{
										OFFSET 0.715260 -0.000000 -0.000000
										CHANNELS 3 Zrotation Yrotation Xrotation
										End Site
										{
											OFFSET 0.000000 0.000000 0.000000
										}
									}
								}
								JOINT LThumb
								{
									OFFSET 0.000000 0.000000 0.000000
									CHANNELS 3 Zrotation Yrotation Xrotation
									End Site
									{
										OFFSET 0.000000 0.000000 0.000000
									}
								}
							}
						}
					}
				}
				JOINT RightShoulder
				{
					OFFSET 0.000000 0.000000 0.000000
					CHANNELS 3 Zrotation Yrotation Xrotation
					JOINT RightArm
					{
						OFFSET -3.136600 1.374050 -0.404650
						CHANNELS 3 Zrotation Yrotation Xrotation
						JOINT RightForeArm
						{
							OFFSET -5.241900 -0.000000 -0.000000
							CHANNELS 3 Zrotation Yrotation Xrotation
							JOINT RightHand
							{
								OFFSET -3.444170 -0.000000 -0.000000
								CHANNELS 3 Zrotation Yrotation Xrotation
								JOINT RightFingerBase
								{
									OFFSET 0.000000 0.000000 0.000000
									CHANNELS 3 Zrotation Yrotation Xrotation
									JOINT RightHandIndex1
									{
										OFFSET -0.622530 -0.000000 -0.000000
										CHANNELS 3 Zrotation Yrotation Xrotation
										End Site
										{
											OFFSET 0.000000 0.000000 0.000000
										}
									}
								}
								JOINT RThumb
								{
									OFFSET 0.000000 0.000000 0.000000
									CHANNELS 3 Zrotation Yrotation Xrotation
									End Site
									{
										OFFSET 0.000000 0.000000 0.000000
									}
								}
							}
						}
					}
				}
			}
		}
	}
}
}
MOTION
Frames: 17
Frame Time: 0.008333
-0.944221 16.836865 -1.310712 -179.341162 80.296931 -179.893022 5.353285 -4.840768 -2.805733 0.746372 -5.347106 -2.638273 -5.485781 -5.290948 3.031953 8.821798 -22.368411 -10.375816 -2.783949 -0.187489 -0.672508 0.000000 0.000000 0.000000 5.329063 14.834044 -0.148620 -42.334726 1.425110 0.343813 -0.829263 -70.935706 -0.011561 3.097833 1.011893 0.023237 -0.104753 0.225453 0.000000 0.000000 0.000000 0.000000 0.000000 0.000000 0.000000 16.660686 -20.041628 -0.649120 72.480599 -17.289979 -13.707751 4.037425 29.371410 0.010305 3.746576 3.339705 0.108353 0.102891 -0.049203 -0.000000 0.000000 0.000000 0.000000 0.000000 0.000000 0.000000 
-0.770985 16.836364 -1.323106 -177.765773 79.747340 -178.464862 5.685279 -4.756610 -2.721464 0.801492 -5.283024 -2.644554 -5.512655 -5.226297 2.978091 8.838256 -22.269936 -10.375157 -2.817406 -0.190602 -0.673088 0.000000 0.000000 0.000000 5.349646 14.789793 -0.222293 -43.042670 1.797773 0.706848 -0.808358 -71.647019 -0.011413 3.088445 0.966675 0.021841 -0.103035 0.225540 0.000000 0.000000 0.000000 0.000000 0.000000 0.000000 0.000000 16.724249 -19.874273 -0.622425 72.119300 -16.718831 -13.550809 4.036178 29.098365 0.010341 3.540057 3.392292 0.103858 0.104179 -0.049722 -0.000000 0.000000 0.000000 0.000000 0.000000 0.000000 0.000000 
-0.601342 16.836215 -1.335792 -176.342703 79.171398 -177.174949 6.001553 -4.668747 -2.626901 0.852308 -5.213384 -2.649983 -5.541674 -5.156249 2.921301 8.871663 -22.139981 -10.376372 -2.850533 -0.193616 -0.674131 0.000000 0.000000 0.000000 5.383176 14.743322 -0.294778 -43.851079 2.183047 1.062467 -0.791095 -72.303210 -0.011303 3.093207 0.911506 0.020347 -0.101567 0.225674 0.000000 0.000000 0.000000 0.000000 0.000000 0.000000 0.000000 16.792281 -19.673815 -0.590360 71.764963 -16.084270 -13.365760 4.033600 28.805007 0.010365 3.323003 3.444485 0.098763 0.105431 -0.050235 -0.000000 0.000000 0.000000 0.000000 0.000000 0.000000 0.000000 
-0.435414 16.836334 -1.348540 -175.098081 78.567871 -176.047299 6.295113 -4.577766 -2.524886 0.897200 -5.138408 -2.655263 -5.573706 -5.080988 2.859454 8.918481 -21.971769 -10.375170 -2.884650 -0.196703 -0.674461 0.000000 0.000000 0.000000 5.420189 14.681877 -0.364284 -44.741971 2.596654 1.408109 -0.777016 -72.908493 -0.011218 3.107970 0.847717 0.018652 -0.100298 0.225688 0.000000 0.000000 0.000000 0.000000 0.000000 0.000000 0.000000 16.864377 -19.432680 -0.552544 71.427080 -15.404404 -13.186991 4.029957 28.511771 0.010339 3.114893 3.474832 0.093168 0.106523 -0.050697 -0.000000 0.000000 0.000000 0.000000 0.000000 0.000000 0.000000 
-0.273058 16.836880 -1.361299 -174.041775 77.928239 -175.084164 6.557113 -4.486661 -2.423003 0.935642 -5.060760 -2.659545 -5.605249 -5.003248 2.800569 8.978531 -21.777795 -10.376530 -2.917150 -0.199557 -0.675476 0.000000 0.000000 0.000000 5.461320 14.650877 -0.430577 -45.720740 2.972457 1.763411 -0.767847 -73.419583 -0.011133 3.125431 0.777403 0.016760 -0.099230 0.225678 0.000000 0.000000 0.000000 0.000000 0.000000 0.000000 0.000000 16.940058 -19.167278 -0.514732 71.083949 -14.666436 -12.907189 4.023350 28.203869 0.010308 2.870107 3.517213 0.086673 0.107740 -0.051126 -0.000000 0.000000 0.000000 0.000000 0.000000 0.000000 0.000000 
-0.114396 16.837892 -1.373938 -173.193257 77.255146 -174.309427 6.781898 -4.394309 -2.319784 0.965722 -4.978983 -2.663547 -5.638478 -4.921492 2.739175 9.045442 -21.550765 -10.372694 -2.950680 -0.202514 -0.675087 0.000000 0.000000 0.000000 5.492404 14.614016 -0.492209 -46.761965 3.354972 2.118383 -0.762328 -73.855188 -0.011027 3.143664 0.701766 0.014769 -0.098290 0.225344 0.000000 0.000000 0.000000 0.000000 0.000000 0.000000 0.000000 17.018406 -18.868297 -0.474367 70.753563 -13.895041 -12.615791 4.015038 27.910390 0.010216 2.631894 3.532460 0.079577 0.108825 -0.051491 -0.000000 0.000000 0.000000 0.000000 0.000000 0.000000 0.000000 
0.040715 16.839645 -1.386556 -172.548796 76.544085 -173.718480 6.964694 -4.301837 -2.218536 0.986934 -4.894080 -2.667066 -5.672092 -4.836739 2.677811 9.115756 -21.294991 -10.363089 -2.984936 -0.205549 -0.673196 0.000000 0.000000 0.000000 5.508856 14.583751 -0.548787 -47.862812 3.721875 2.479886 -0.761259 -74.193315 -0.010882 3.158285 0.623133 0.012578 -0.097462 0.224615 0.000000 0.000000 0.000000 0.000000 0.000000 0.000000 0.000000 17.098707 -18.541719 -0.434150 70.427861 -13.093376 -12.287110 4.004467 27.633498 0.010075 2.389930 3.528458 0.071880 0.109856 -0.051807 -0.000000 0.000000 0.000000 0.000000 0.000000 0.000000 0.000000 
0.192344 16.842408 -1.399309 -172.100519 75.793088 -173.305136 7.101829 -4.209239 -2.120190 0.998888 -4.805896 -2.669620 -5.704695 -4.748870 2.618564 9.185827 -21.019669 -10.347293 -3.019213 -0.208600 -0.669750 0.000000 0.000000 0.000000 5.505597 14.565016 -0.600512 -49.020592 4.060217 2.850880 -0.765191 -74.415552 -0.010685 3.166707 0.543216 0.010388 -0.096732 0.223402 0.000000 0.000000 0.000000 0.000000 0.000000 0.000000 0.000000 17.178484 -18.198362 -0.395612 70.100437 -12.259615 -11.905596 3.991545 27.372108 0.009894 2.139474 3.510088 0.063683 0.110893 -0.052091 -0.000000 0.000000 0.000000 0.000000 0.000000 0.000000 0.000000 
0.340598 16.846592 -1.412424 -171.831302 75.001251 -173.054910 7.192725 -4.116201 -2.025562 1.001542 -4.714187 -2.671338 -5.735883 -4.657656 2.561367 9.251485 -20.725941 -10.322555 -3.053932 -0.211737 -0.664053 0.000000 0.000000 0.000000 5.478014 14.554027 -0.647168 -50.232298 4.370857 3.228495 -0.774635 -74.508701 -0.010429 3.167439 0.464093 0.008198 -0.096092 0.221583 0.000000 0.000000 0.000000 0.000000 0.000000 0.000000 0.000000 17.256149 -17.839921 -0.359641 69.769159 -11.402268 -11.483254 3.976565 27.132995 0.009676 1.887109 3.476828 0.055284 0.111919 -0.052366 -0.000000 0.000000 0.000000 0.000000 0.000000 0.000000 0.000000 
0.485530 16.852599 -1.426137 -171.723115 74.167758 -172.953016 7.236475 -4.022300 -1.934467 0.994987 -4.618503 -2.671846 -5.764368 -4.562707 2.507611 9.310041 -20.421520 -10.288289 -3.088308 -0.214899 -0.655990 0.000000 0.000000 0.000000 5.423459 14.552037 -0.689067 -51.499127 4.647323 3.609435 -0.790377 -74.453733 -0.010111 3.160478 0.386799 0.006108 -0.095547 0.219093 0.000000 0.000000 0.000000 0.000000 0.000000 0.000000 0.000000 17.328821 -17.475477 -0.327190 69.427872 -10.520617 -11.014270 3.959763 26.914953 0.009437 1.632967 3.434457 0.046887 0.112967 -0.052653 -0.000000 0.000000 0.000000 0.000000 0.000000 0.000000 0.000000 
0.627223 16.860791 -1.440734 -171.752943 73.292656 -172.979683 7.234741 -3.927005 -1.847176 0.979512 -4.518482 -2.671577 -5.790057 -4.463708 2.456105 9.358326 -20.102932 -10.241074 -3.122780 -0.218170 -0.644652 0.000000 0.000000 0.000000 5.339556 14.552059 -0.725673 -52.819241 4.898143 3.983318 -0.813103 -74.238859 -0.009740 3.147200 0.312641 0.004018 -0.095117 0.215838 0.000000 0.000000 0.000000 0.000000 0.000000 0.000000 0.000000 17.394152 -17.101452 -0.298564 69.075895 -9.629422 -10.524721 3.941691 26.728045 0.009179 1.389694 3.381552 0.038889 0.113981 -0.052973 -0.000000 0.000000 0.000000 0.000000 0.000000 0.000000 0.000000 
0.765745 16.871483 -1.456474 -171.897789 72.377054 -173.115015 7.189286 -3.829813 -1.763033 0.955661 -4.413722 -2.670465 -5.811904 -4.360346 2.407199 9.394691 -19.773388 -10.179984 -3.156394 -0.221479 -0.629792 0.000000 0.000000 0.000000 5.225976 14.552730 -0.756802 -54.192713 5.124160 4.339982 -0.843714 -73.848035 -0.009322 3.130771 0.242088 0.002226 -0.094841 0.211789 0.000000 0.000000 0.000000 0.000000 0.000000 0.000000 0.000000 17.447720 -16.721731 -0.274100 68.709439 -8.733354 -10.017807 3.922674 26.575003 0.008923 1.161883 3.324089 0.031490 0.114958 -0.053351 -0.000000 0.000000 0.000000 0.000000 0.000000 0.000000 0.000000 
0.901145 16.884814 -1.473584 -172.136512 71.422896 -173.341085 7.101439 -3.730058 -1.680543 0.923929 -4.303573 -2.668013 -5.828606 -4.252064 2.362392 9.418905 -19.439591 -10.106042 -3.187523 -0.224677 -0.611685 0.000000 0.000000 0.000000 5.084553 14.558029 -0.782443 -55.619532 5.321166 4.669579 -0.883219 -73.262784 -0.008879 3.116326 0.175044 0.000433 -0.094781 0.206948 0.000000 0.000000 0.000000 0.000000 0.000000 0.000000 0.000000 17.485286 -16.343796 -0.254293 68.322768 -7.832207 -9.483271 3.902821 26.454550 0.008684 0.948466 3.271452 0.024791 0.115930 -0.053800 -0.000000 0.000000 0.000000 0.000000 0.000000 0.000000 0.000000 
1.033513 16.900776 -1.492226 -172.444406 70.433713 -173.635783 6.975175 -3.627157 -1.598766 0.885153 -4.187670 -2.664412 -5.839680 -4.138576 2.321093 9.430200 -19.098935 -10.018352 -3.215230 -0.227701 -0.590059 0.000000 0.000000 0.000000 4.916365 14.566536 -0.801680 -57.094524 5.494688 4.957899 -0.932427 -72.472800 -0.008435 3.110787 0.111508 -0.001161 -0.095016 0.201314 0.000000 0.000000 0.000000 0.000000 0.000000 0.000000 0.000000 17.501334 -15.964496 -0.239017 67.915792 -6.938405 -8.934769 3.882283 26.376100 0.008474 0.757498 3.226125 0.018992 0.116852 -0.054339 -0.000000 0.000000 0.000000 0.000000 0.000000 0.000000 0.000000 
1.162930 16.919161 -1.512528 -172.799565 69.414492 -173.979370 6.813963 -3.520465 -1.516039 0.840259 -4.065510 -2.659040 -5.843932 -4.019437 2.285327 9.429534 -18.758725 -9.919994 -3.237367 -0.230336 -0.565726 0.000000 0.000000 0.000000 4.724032 14.586554 -0.814217 -58.611575 5.637805 5.195723 -0.992223 -71.463595 -0.008023 3.123643 0.049932 -0.002757 -0.095657 0.194942 0.000000 0.000000 0.000000 0.000000 0.000000 0.000000 0.000000 17.490703 -15.591312 -0.228538 67.484107 -6.050266 -8.357196 3.860808 26.339926 0.008310 0.585509 3.196006 0.013893 0.117756 -0.054968 -0.000000 0.000000 0.000000 0.000000 0.000000 0.000000 0.000000 
1.289506 16.939673 -1.534536 -173.178684 68.370938 -174.349897 6.624254 -3.409279 -1.432090 0.790298 -3.936826 -2.652748 -5.842127 -3.894398 2.252365 9.416102 -18.407182 -9.808881 -3.253899 -0.232619 -0.538066 0.000000 0.000000 0.000000 4.507576 14.612411 -0.818282 -60.155962 5.764766 5.366242 -1.062769 -70.237959 -0.007668 3.165606 -0.010678 -0.004355 -0.096791 0.187834 0.000000 0.000000 0.000000 0.000000 0.000000 0.000000 0.000000 17.447970 -15.210234 -0.221998 67.031987 -5.192598 -7.785673 3.838329 26.365086 0.008187 0.446088 3.176079 0.009795 0.118530 -0.055703 -0.000000 0.000000 0.000000 0.000000 0.000000 0.000000 0.000000 
1.413362 16.961715 -1.558171 -173.570452 67.309340 -174.737242 6.406945 -3.293276 -1.344270 0.735812 -3.801216 -2.643966 -5.832782 -3.763049 2.226995 9.393180 -18.060757 -9.692734 -3.261791 -0.234206 -0.509158 0.000000 0.000000 0.000000 4.272573 14.663492 -0.814148 -61.717203 5.854428 5.470507 -1.144640 -68.781082 -0.007395 3.248948 -0.073614 -0.006056 -0.098546 0.180101 0.000000 0.000000 0.000000 0.000000 0.000000 0.000000 0.000000 17.370069 -14.838311 -0.220047 66.552783 -4.349886 -7.179070 3.813860 26.443777 0.008121 0.323035 3.177258 0.006397 0.119275 -0.056531 -0.000000 0.000000 0.000000 0.000000 0.000000 0.000000 0.000000 
